<mxfile host="drawio-plugin" agent="Mozilla/5.0 (Windows NT 10.0; Win64; x64) AppleWebKit/537.36 (KHTML, like Gecko) Chrome/122.0.0.0 Safari/537.36" modified="2024-11-24T13:03:50.456Z" etag="K5W8RvY2vZBQppSl5sqO" version="22.1.22" type="embed">
  <diagram name="Page-1" id="5f0bae14-7c28-e335-631c-24af17079c00">
    <mxGraphModel dx="1515" dy="869" grid="1" gridSize="10" guides="1" tooltips="1" connect="1" arrows="1" fold="1" page="1" pageScale="1" pageWidth="1100" pageHeight="850" background="none" math="0" shadow="0">
      <root>
        <mxCell id="0" />
        <mxCell id="1" parent="0" />
        <mxCell id="n8QAAM1QE8m8qRbaEajq-6" value="«component»&lt;div&gt;«system (C4)»&lt;/div&gt;&lt;div&gt;&lt;b&gt;System&lt;/b&gt;&lt;/div&gt;" style="html=1;dropTarget=0;whiteSpace=wrap;aspect=fixed;container=1;align=center;horizontal=1;verticalAlign=top;" parent="1" vertex="1">
          <mxGeometry x="170" y="67.5" width="1092.86" height="382.5" as="geometry" />
        </mxCell>
        <mxCell id="n8QAAM1QE8m8qRbaEajq-10" value="" style="endArrow=none;html=1;rounded=0;" parent="1" edge="1">
          <mxGeometry width="50" height="50" relative="1" as="geometry">
            <mxPoint x="140" y="290" as="sourcePoint" />
            <mxPoint x="140" y="170" as="targetPoint" />
          </mxGeometry>
        </mxCell>
        <mxCell id="n8QAAM1QE8m8qRbaEajq-11" value="&lt;font style=&quot;font-size: 17px;&quot;&gt;Google API&lt;/font&gt;" style="text;strokeColor=none;fillColor=none;align=left;verticalAlign=middle;spacingLeft=4;spacingRight=4;overflow=hidden;points=[[0,0.5],[1,0.5]];portConstraint=eastwest;rotatable=0;whiteSpace=wrap;html=1;" parent="1" vertex="1">
          <mxGeometry x="60" y="100" width="110" height="30" as="geometry" />
        </mxCell>
        <mxCell id="n8QAAM1QE8m8qRbaEajq-12" value="«component»&lt;div&gt;&lt;b&gt;BE&lt;/b&gt;&lt;/div&gt;" style="html=1;dropTarget=0;whiteSpace=wrap;" parent="1" vertex="1">
          <mxGeometry x="210" y="355" width="140" height="70" as="geometry" />
        </mxCell>
        <mxCell id="n8QAAM1QE8m8qRbaEajq-13" value="" style="shape=module;jettyWidth=8;jettyHeight=4;" parent="n8QAAM1QE8m8qRbaEajq-12" vertex="1">
          <mxGeometry x="1" width="20" height="20" relative="1" as="geometry">
            <mxPoint x="-27" y="7" as="offset" />
          </mxGeometry>
        </mxCell>
        <mxCell id="n8QAAM1QE8m8qRbaEajq-14" value="" style="whiteSpace=wrap;html=1;aspect=fixed;" parent="1" vertex="1">
          <mxGeometry x="190" y="370" width="30" height="30" as="geometry" />
        </mxCell>
        <mxCell id="n8QAAM1QE8m8qRbaEajq-16" value="" style="endArrow=none;html=1;rounded=0;" parent="1" edge="1">
          <mxGeometry width="50" height="50" relative="1" as="geometry">
            <mxPoint x="140" y="380" as="sourcePoint" />
            <mxPoint x="139.66000000000003" y="290" as="targetPoint" />
          </mxGeometry>
        </mxCell>
        <mxCell id="n8QAAM1QE8m8qRbaEajq-17" value="" style="endArrow=none;html=1;rounded=0;" parent="1" edge="1">
          <mxGeometry width="50" height="50" relative="1" as="geometry">
            <mxPoint x="190" y="385" as="sourcePoint" />
            <mxPoint x="139.66000000000003" y="385" as="targetPoint" />
          </mxGeometry>
        </mxCell>
        <mxCell id="2J6mhQwY4nmyH72Ya9vR-2" value="" style="whiteSpace=wrap;html=1;aspect=fixed;" parent="1" vertex="1">
          <mxGeometry x="265" y="420" width="30" height="30" as="geometry" />
        </mxCell>
        <mxCell id="2J6mhQwY4nmyH72Ya9vR-6" value="" style="shape=providedRequiredInterface;html=1;verticalLabelPosition=bottom;sketch=0;rotation=-180;" parent="1" vertex="1">
          <mxGeometry x="410" y="540" width="30" height="30" as="geometry" />
        </mxCell>
        <mxCell id="2J6mhQwY4nmyH72Ya9vR-7" value="&lt;font style=&quot;font-size: 15px;&quot;&gt;DB API&lt;/font&gt;" style="text;strokeColor=none;fillColor=none;align=left;verticalAlign=middle;spacingLeft=4;spacingRight=4;overflow=hidden;points=[[0,0.5],[1,0.5]];portConstraint=eastwest;rotatable=0;whiteSpace=wrap;html=1;" parent="1" vertex="1">
          <mxGeometry x="390" y="510" width="70" height="30" as="geometry" />
        </mxCell>
        <mxCell id="2J6mhQwY4nmyH72Ya9vR-10" value="«component»&lt;div&gt;&lt;b&gt;DB - SQL Server&lt;/b&gt;&lt;/div&gt;" style="html=1;dropTarget=0;whiteSpace=wrap;" parent="1" vertex="1">
          <mxGeometry x="750" y="530" width="150" height="80" as="geometry" />
        </mxCell>
        <mxCell id="2J6mhQwY4nmyH72Ya9vR-11" value="" style="shape=module;jettyWidth=8;jettyHeight=4;" parent="2J6mhQwY4nmyH72Ya9vR-10" vertex="1">
          <mxGeometry x="1" width="20" height="20" relative="1" as="geometry">
            <mxPoint x="-27" y="7" as="offset" />
          </mxGeometry>
        </mxCell>
        <mxCell id="2J6mhQwY4nmyH72Ya9vR-9" value="" style="whiteSpace=wrap;html=1;aspect=fixed;" parent="1" vertex="1">
          <mxGeometry x="720" y="540" width="30" height="30" as="geometry" />
        </mxCell>
        <mxCell id="2" value="«component»&lt;div&gt;&lt;b&gt;FE&lt;/b&gt;&lt;/div&gt;" style="html=1;dropTarget=0;whiteSpace=wrap;" parent="1" vertex="1">
          <mxGeometry x="820" y="130" width="300" height="110" as="geometry" />
        </mxCell>
        <mxCell id="3" value="" style="shape=module;jettyWidth=8;jettyHeight=4;" parent="2" vertex="1">
          <mxGeometry x="1" width="20" height="20" relative="1" as="geometry">
            <mxPoint x="-27" y="7" as="offset" />
          </mxGeometry>
        </mxCell>
        <mxCell id="4" value="" style="image;aspect=fixed;perimeter=ellipsePerimeter;html=1;align=center;shadow=0;dashed=0;spacingTop=3;image=img/lib/active_directory/databases.svg;" parent="1" vertex="1">
          <mxGeometry x="794.39" y="495" width="61.22" height="60" as="geometry" />
        </mxCell>
        <mxCell id="16" style="rounded=1;orthogonalLoop=1;jettySize=auto;html=1;strokeColor=default;endArrow=none;endFill=0;curved=0;exitX=1.014;exitY=0.857;exitDx=0;exitDy=0;exitPerimeter=0;entryX=0;entryY=0.573;entryDx=0;entryDy=0;entryPerimeter=0;" edge="1" parent="1" source="39" target="2">
          <mxGeometry relative="1" as="geometry">
            <mxPoint x="480" y="193" as="targetPoint" />
            <mxPoint x="820.6999999999998" y="202.8499999999999" as="sourcePoint" />
            <Array as="points" />
          </mxGeometry>
        </mxCell>
        <mxCell id="9" value="" style="whiteSpace=wrap;html=1;aspect=fixed;" parent="1" vertex="1">
          <mxGeometry x="265" y="330" width="30" height="30" as="geometry" />
        </mxCell>
        <mxCell id="14" value="&amp;lt;&amp;lt;component&amp;gt;&amp;gt;&lt;br&gt;3D Model&amp;nbsp;" style="rounded=0;whiteSpace=wrap;html=1;" vertex="1" parent="1">
          <mxGeometry x="1010" y="180" width="100" height="50" as="geometry" />
        </mxCell>
        <mxCell id="18" value="" style="edgeStyle=orthogonalEdgeStyle;rounded=0;orthogonalLoop=1;jettySize=auto;html=1;strokeColor=default;startArrow=none;startFill=0;endArrow=none;endFill=0;" edge="1" parent="1" source="9" target="17">
          <mxGeometry relative="1" as="geometry">
            <mxPoint x="530" y="185" as="targetPoint" />
            <mxPoint x="280" y="320" as="sourcePoint" />
            <Array as="points">
              <mxPoint x="280" y="280" />
              <mxPoint x="280" y="280" />
            </Array>
          </mxGeometry>
        </mxCell>
        <mxCell id="17" value="HTTP&amp;nbsp;" style="whiteSpace=wrap;html=1;aspect=fixed;" vertex="1" parent="1">
          <mxGeometry x="250" y="180" width="70" height="70" as="geometry" />
        </mxCell>
        <mxCell id="24" value="" style="endArrow=none;html=1;rounded=0;" edge="1" parent="1" target="2J6mhQwY4nmyH72Ya9vR-2">
          <mxGeometry width="50" height="50" relative="1" as="geometry">
            <mxPoint x="280" y="490" as="sourcePoint" />
            <mxPoint x="320" y="450" as="targetPoint" />
          </mxGeometry>
        </mxCell>
        <mxCell id="25" style="edgeStyle=orthogonalEdgeStyle;rounded=0;orthogonalLoop=1;jettySize=auto;html=1;endArrow=none;endFill=0;" edge="1" parent="1" source="2J6mhQwY4nmyH72Ya9vR-6" target="n8QAAM1QE8m8qRbaEajq-6">
          <mxGeometry relative="1" as="geometry">
            <Array as="points">
              <mxPoint x="280" y="555" />
            </Array>
          </mxGeometry>
        </mxCell>
        <mxCell id="28" value="" style="endArrow=none;html=1;rounded=0;entryX=0.667;entryY=1;entryDx=0;entryDy=0;entryPerimeter=0;exitX=0;exitY=0.5;exitDx=0;exitDy=0;exitPerimeter=0;" edge="1" parent="1" source="2J6mhQwY4nmyH72Ya9vR-6">
          <mxGeometry width="50" height="50" relative="1" as="geometry">
            <mxPoint x="450" y="555" as="sourcePoint" />
            <mxPoint x="730.0000000000002" y="554.9999999999998" as="targetPoint" />
          </mxGeometry>
        </mxCell>
        <mxCell id="36" value="" style="shape=providedRequiredInterface;html=1;verticalLabelPosition=bottom;sketch=0;rotation=-180;" vertex="1" parent="1">
          <mxGeometry x="130" y="140" width="30" height="30" as="geometry" />
        </mxCell>
        <mxCell id="39" value="" style="whiteSpace=wrap;html=1;aspect=fixed;" vertex="1" parent="1">
          <mxGeometry x="794.39" y="200" width="30" height="30" as="geometry" />
        </mxCell>
        <mxCell id="43" value="" style="endArrow=none;html=1;rounded=0;exitX=1.041;exitY=0.384;exitDx=0;exitDy=0;exitPerimeter=0;" edge="1" parent="1">
          <mxGeometry width="50" height="50" relative="1" as="geometry">
            <mxPoint x="322.87000000000035" y="215.1700000000001" as="sourcePoint" />
            <mxPoint x="790" y="214.54" as="targetPoint" />
            <Array as="points">
              <mxPoint x="480" y="214.29" />
            </Array>
          </mxGeometry>
        </mxCell>
        <mxCell id="44" value="" style="whiteSpace=wrap;html=1;aspect=fixed;" vertex="1" parent="1">
          <mxGeometry x="790" y="150" width="30" height="30" as="geometry" />
        </mxCell>
        <mxCell id="46" value="" style="endArrow=none;html=1;rounded=0;exitX=0;exitY=0.5;exitDx=0;exitDy=0;exitPerimeter=0;" edge="1" parent="1" source="36">
          <mxGeometry width="50" height="50" relative="1" as="geometry">
            <mxPoint x="740" y="210" as="sourcePoint" />
            <mxPoint x="790" y="160" as="targetPoint" />
          </mxGeometry>
        </mxCell>
      </root>
    </mxGraphModel>
  </diagram>
</mxfile>
